<?xml version="1.0" encoding="utf-8"?>
<svg version="1.1" id="Ebene_1" xmlns="http://www.w3.org/2000/svg" xmlns:xlink="http://www.w3.org/1999/xlink" x="0px" y="0px"
	 viewBox="0 0 100 100" style="enable-background:new 0 0 100 100;" xml:space="preserve">
<style type="text/css">
	.st0{fill:#FFFFFF;}
</style>
<path class="st0" d="M72,84c-3.7-0.9-7.3-1.7-10.5-2c-2.3-5.3-4.5-11.3-6.3-18.1c-2.7-9.9-3.9-19.1-4.3-26.9c0.1,0,0.2,0.1,0.4,0.1
	c1.5,0,2.8-2,2.8-4.5c0-0.3,0-0.6-0.1-0.9c4.9,1,8.5,2.8,10.4,3.9c7.3,4.1,11.1,9.8,12.7,12.4c-0.3-2.5-1.7-9.7-7.9-16.1
	c-4-4.1-8.5-6.3-12-7.4c4-1.8,7.5-2.4,9.4-2.6c8.1-0.9,14.5,1.6,17.2,2.9c-1.7-1.9-7.1-7.5-15.7-9.1c-6.8-1.3-12.4,0.4-15.8,1.9
	c-1.8-3.2-5.8-8.4-13.4-10.5c-8.7-2.4-16.9,0.8-19.6,2c3.3,0,10.4,0.4,17,5.3c1.2,0.9,3,2.4,4.8,4.7c-2.8-0.4-6-0.5-9.5-0.1
	c-9,1-14.4,5-16.1,6.3c2.9-0.9,9.4-2.6,18.1-1.7c1.2,0.1,3,0.4,5.2,0.8c-2.9,1-6.1,2.7-9.1,5.3c-6.6,5.8-8.4,12.9-9,15.3
	c1.7-2.5,5.9-7.7,13.4-11.1c2-0.9,5.9-2.5,11-3c-0.3,9.4,0.3,21.2,3.4,34.3C50,71.6,52,77.5,54,82.7c-0.8,0.3-1.5,0.8-2.2,1.3
	c-1.5,1.3-1.5,2.3-3.4,3.4c-2.7,1.5-4.8,0.6-7.8,1.1c-2,0.3-4.7,1.3-7.8,4.5h49.3c-0.7-2.2-1.5-4.5-2.2-6.7C77,85.3,74.3,84.6,72,84
	z"/>
</svg>